<svg width="30" height="30" viewBox="0 0 30 30" fill="none" xmlns="http://www.w3.org/2000/svg">
<g id="file-icons:microsoft-project" clip-path="url(#clip0_1484_139)">
<path id="Vector" d="M17.0855 0.790283V3.75173H29.0677C29.5826 3.75173 30 4.16915 30 4.68413V25.0674C30 25.5824 29.5826 25.9998 29.0677 25.9998H17.0855V29.2099L0 26.1862V3.80868L17.0855 0.790342V0.790283ZM11.416 13.2248C11.4735 12.3143 11.2573 11.3914 10.6449 10.8011C9.91611 10.0985 9.43025 9.9755 7.34672 10.0834L5.65418 10.171V19.7309H7.37508V16.4122C10.55 16.6832 11.2859 14.8518 11.416 13.2248ZM9.43811 13.2248C9.34816 14.7782 8.62869 14.7128 7.37502 14.6914V11.8028C8.78402 11.7531 9.39223 11.9461 9.43811 13.2248ZM27.6812 13.2164L24.4519 16.5845L21.0763 13.2164H23.6002V8.79138H17.0855V17.4422L19.6796 14.8895L23.5387 18.7514C23.5387 18.7514 19.7617 22.4352 19.6721 22.4352C19.5827 22.4352 17.0855 20.0537 17.0855 20.0537V25.0165H29.0085V4.73505H17.0855V7.19335H25.1981V13.2163L27.6812 13.2164Z" fill="black"/>
</g>
<defs>
<clipPath id="clip0_1484_139">
<rect width="30" height="30" fill="white"/>
</clipPath>
</defs>
</svg>
