<svg width="30" height="30" viewBox="0 0 30 30" fill="none" xmlns="http://www.w3.org/2000/svg">
<g id="game-icons:team-upgrade">
<path id="Vector" d="M5.64648 1.875L2.83398 5.625H4.70898V9.375H6.58574V5.625H8.46074L5.64648 1.875ZM15.0232 1.875L12.2107 5.625H14.0857V9.375H15.9607V5.625H17.8357L15.0232 1.875ZM24.3982 1.875L21.5857 5.625H23.4607V9.375H25.3357V5.625H27.2107L24.3982 1.875ZM5.64648 11.25C4.63867 11.25 3.74219 12.3281 3.74219 13.7402C3.74219 14.4668 3.98242 15.1113 4.3457 15.5566L4.70898 16.0137L4.12891 16.1016C3.57812 16.1895 3.20312 16.4531 2.89258 16.8691C2.58203 17.2852 2.35352 17.8594 2.21289 18.5332C1.9375 19.7578 1.93164 21.2637 1.93164 22.5762H3.44922L3.81836 28.3184H7.31816L7.74004 22.5762H9.33965C9.33379 21.2812 9.26934 19.793 8.97051 18.5742C8.80645 17.9121 8.57793 17.332 8.26738 16.9102C7.96855 16.4941 7.59941 16.2305 7.10137 16.1367L6.53301 16.0312L6.90801 15.5918C7.28301 15.1348 7.54082 14.4844 7.54082 13.7402C7.54082 12.4102 6.73809 11.373 5.83398 11.25H5.64648ZM15.0232 11.25C14.0154 11.25 13.1189 12.3281 13.1189 13.7402C13.1189 14.4668 13.3592 15.1113 13.7225 15.5566L14.0857 16.0137L13.5057 16.1016C12.9549 16.1895 12.5799 16.4531 12.2693 16.8691C11.9588 17.2852 11.7303 17.8594 11.5896 18.5332C11.3143 19.7578 11.3084 21.2637 11.3084 22.5762H12.826L13.1951 28.3184H16.6932L17.115 22.5762H18.7146C18.7088 21.2812 18.6443 19.793 18.3455 18.5742C18.1814 17.9121 17.9529 17.332 17.6424 16.9102C17.3436 16.4941 16.9744 16.2305 16.4764 16.1367L15.908 16.0312L16.283 15.5918C16.658 15.1348 16.9158 14.4844 16.9158 13.7402C16.9158 12.4102 16.1131 11.373 15.2107 11.25H15.0232ZM24.3982 11.25C23.3963 11.25 22.4998 12.3281 22.4998 13.7402C22.4998 14.4668 22.74 15.1113 23.1033 15.5566L23.4666 16.0137L22.8865 16.1016C22.3357 16.1895 21.9549 16.4531 21.6443 16.8691C21.3338 17.2852 21.1053 17.8594 20.9646 18.5332C20.6893 19.7578 20.6834 21.2637 20.6834 22.5762H22.201L22.576 28.3184H26.0682L26.4959 22.5762H28.0896C28.0838 21.2812 28.0193 19.793 27.7264 18.5742C27.5623 17.9121 27.3279 17.332 27.0174 16.9102C26.7186 16.4941 26.3494 16.2305 25.8572 16.1367L25.2889 16.0312L25.658 15.5918C26.033 15.1348 26.2908 14.4844 26.2908 13.7402C26.2908 12.4102 25.4881 11.373 24.5857 11.25H24.3982Z" fill="black"/>
</g>
</svg>
